<svg width="268" height="63" viewBox="0 0 268 63" fill="none" xmlns="http://www.w3.org/2000/svg">
<path d="M19.2 50.48C15.936 50.48 13.12 49.808 10.752 48.464C8.384 47.12 6.56 45.296 5.28 42.992C4 40.656 3.36 38 3.36 35.024C3.36 32.752 3.792 30.592 4.656 28.544C5.552 26.464 6.752 24.624 8.256 23.024C9.792 21.424 11.552 20.16 13.536 19.232C15.552 18.304 17.68 17.84 19.92 17.84C21.52 17.84 22.88 17.952 24 18.176C25.12 18.368 26.112 18.64 26.976 18.992C27.872 19.312 28.768 19.696 29.664 20.144L29.904 28.544H29.04L26.112 22.688C24.896 21.824 23.824 21.2 22.896 20.816C22 20.432 20.976 20.24 19.824 20.24C17.52 20.24 15.456 20.816 13.632 21.968C11.84 23.12 10.416 24.704 9.36 26.72C8.336 28.704 7.824 30.992 7.824 33.584C7.824 36.624 8.32 39.232 9.312 41.408C10.336 43.552 11.696 45.2 13.392 46.352C15.12 47.472 17.024 48.032 19.104 48.032C20.864 48.032 22.336 47.792 23.52 47.312C24.736 46.8 25.808 46.24 26.736 45.632L29.616 40.496H30.432L29.904 48.128C28.976 48.608 28.016 49.024 27.024 49.376C26.064 49.728 24.96 50 23.712 50.192C22.464 50.384 20.96 50.48 19.2 50.48ZM47.7881 50.48C45.6761 50.48 43.8201 49.984 42.2201 48.992C40.6521 48 39.4201 46.656 38.5241 44.96C37.6601 43.264 37.2281 41.344 37.2281 39.2C37.2281 37.056 37.6601 35.136 38.5241 33.44C39.4201 31.744 40.6521 30.4 42.2201 29.408C43.8201 28.416 45.6761 27.92 47.7881 27.92C49.9001 27.92 51.7401 28.416 53.3081 29.408C54.9081 30.4 56.1401 31.744 57.0041 33.44C57.9001 35.136 58.3481 37.056 58.3481 39.2C58.3481 41.344 57.9001 43.264 57.0041 44.96C56.1401 46.656 54.9081 48 53.3081 48.992C51.7401 49.984 49.9001 50.48 47.7881 50.48ZM48.4601 48.416C49.7401 48.416 50.7961 48.016 51.6281 47.216C52.4601 46.416 53.0681 45.392 53.4521 44.144C53.8361 42.864 54.0281 41.536 54.0281 40.16C54.0281 38.464 53.7881 36.832 53.3081 35.264C52.8601 33.696 52.1241 32.416 51.1001 31.424C50.1081 30.432 48.8121 29.936 47.2121 29.936C45.9001 29.936 44.8281 30.336 43.9961 31.136C43.1641 31.936 42.5401 32.96 42.1241 34.208C41.7401 35.456 41.5481 36.784 41.5481 38.192C41.5481 39.888 41.7881 41.52 42.2681 43.088C42.7481 44.656 43.5001 45.936 44.5241 46.928C45.5481 47.92 46.8601 48.416 48.4601 48.416ZM71.4484 50.48C69.8484 50.48 68.4084 50.08 67.1284 49.28C65.8804 48.48 64.8884 47.36 64.1524 45.92C63.4484 44.448 63.0964 42.704 63.0964 40.688C63.0964 37.968 63.6244 35.664 64.6804 33.776C65.7364 31.856 67.1444 30.4 68.9044 29.408C70.6644 28.416 72.5844 27.92 74.6644 27.92C75.5604 27.92 76.3444 27.968 77.0164 28.064C77.6884 28.128 78.2964 28.224 78.8404 28.352V19.472L75.7204 16.976V16.64L82.3924 14H82.6804V47.84L86.0884 49.232V50H79.3204L78.9364 47.552H78.6004C77.3844 48.576 76.2004 49.328 75.0484 49.808C73.9284 50.256 72.7284 50.48 71.4484 50.48ZM66.9364 39.584C66.9364 42.24 67.6404 44.176 69.0484 45.392C70.4564 46.576 72.1364 47.168 74.0884 47.168C74.8564 47.168 75.6404 47.056 76.4404 46.832C77.2724 46.576 78.0724 46.208 78.8404 45.728V32.288C78.0724 31.616 77.3044 31.12 76.5364 30.8C75.8004 30.448 74.9684 30.272 74.0404 30.272C72.7604 30.272 71.5764 30.592 70.4884 31.232C69.4324 31.84 68.5684 32.832 67.8964 34.208C67.2564 35.552 66.9364 37.344 66.9364 39.584ZM100.229 50.48C97.1249 50.48 94.6769 49.536 92.8849 47.648C91.0929 45.76 90.1969 43.264 90.1969 40.16C90.1969 37.76 90.6609 35.648 91.5889 33.824C92.5489 31.968 93.7969 30.528 95.3329 29.504C96.9009 28.448 98.5969 27.92 100.421 27.92C102.949 27.92 104.933 28.8 106.373 30.56C107.845 32.32 108.581 34.848 108.581 38.144L108.341 38.384H93.9889C94.0209 39.856 94.3089 41.248 94.8529 42.56C95.3969 43.84 96.2609 44.88 97.4449 45.68C98.6609 46.48 100.277 46.88 102.293 46.88C104.053 46.88 106.117 46.24 108.485 44.96H108.629V45.44C107.893 46.816 106.789 48 105.317 48.992C103.877 49.984 102.181 50.48 100.229 50.48ZM99.6529 30.032C98.1169 30.032 96.8529 30.576 95.8609 31.664C94.9009 32.72 94.3089 34.224 94.0849 36.176H104.933C104.581 34 103.957 32.432 103.061 31.472C102.197 30.512 101.061 30.032 99.6529 30.032Z" fill="black"/>
<path d="M114.167 50V49.232L118.007 47.312V21.008L114.167 19.088V18.32H126.311C128.423 18.32 130.311 18.592 131.975 19.136C133.671 19.648 134.999 20.432 135.959 21.488C136.919 22.512 137.399 23.824 137.399 25.424C137.399 27.056 136.855 28.56 135.767 29.936C134.679 31.28 133.111 32.24 131.063 32.816C133.911 33.2 136.135 34.096 137.735 35.504C139.335 36.88 140.135 38.64 140.135 40.784C140.135 42.544 139.575 44.128 138.455 45.536C137.367 46.912 135.863 48 133.943 48.8C132.023 49.6 129.847 50 127.415 50H114.167ZM125.207 20.96H122.327V32.336H125.495C127.767 32.336 129.543 31.856 130.823 30.896C132.103 29.904 132.743 28.528 132.743 26.768C132.743 22.896 130.231 20.96 125.207 20.96ZM127.031 34.976H122.327V47.36H127.367C129.895 47.36 131.879 46.784 133.319 45.632C134.759 44.48 135.479 42.992 135.479 41.168C135.479 38.992 134.743 37.424 133.271 36.464C131.831 35.472 129.751 34.976 127.031 34.976ZM145.137 50V49.232L148.161 47.696V33.392L145.281 30.896V30.56L151.233 27.92H151.521L151.953 32H152.145C152.881 30.816 153.553 29.936 154.161 29.36C154.801 28.752 155.393 28.368 155.937 28.208C156.481 28.016 157.025 27.92 157.569 27.92C157.825 27.92 158.113 27.968 158.433 28.064C158.785 28.16 159.073 28.256 159.297 28.352C159.649 28.512 159.969 28.704 160.257 28.928C160.577 29.152 160.737 29.408 160.737 29.696C160.737 29.984 160.673 30.272 160.545 30.56L159.585 32.912H159.249L157.425 32.192C157.073 32.032 156.721 31.936 156.369 31.904C156.049 31.872 155.729 31.856 155.409 31.856C154.065 31.856 152.929 32.544 152.001 33.92V47.696L155.409 49.232V50H145.137ZM174.151 50.48C171.047 50.48 168.599 49.536 166.807 47.648C165.015 45.76 164.119 43.264 164.119 40.16C164.119 37.76 164.583 35.648 165.511 33.824C166.471 31.968 167.719 30.528 169.255 29.504C170.823 28.448 172.519 27.92 174.343 27.92C176.871 27.92 178.855 28.8 180.295 30.56C181.767 32.32 182.503 34.848 182.503 38.144L182.263 38.384H167.911C167.943 39.856 168.231 41.248 168.775 42.56C169.319 43.84 170.183 44.88 171.367 45.68C172.583 46.48 174.199 46.88 176.215 46.88C177.975 46.88 180.039 46.24 182.407 44.96H182.551V45.44C181.815 46.816 180.711 48 179.239 48.992C177.799 49.984 176.103 50.48 174.151 50.48ZM173.575 30.032C172.039 30.032 170.775 30.576 169.783 31.664C168.823 32.72 168.231 34.224 168.007 36.176H178.855C178.503 34 177.879 32.432 176.983 31.472C176.119 30.512 174.983 30.032 173.575 30.032ZM194.617 50L187.081 30.656L183.865 29.168V28.4H195.337V29.168L191.401 30.608V30.896L196.393 44.192H196.585L203.401 28.4H204.409L211.225 44.048H211.417L216.265 31.184V30.896L212.809 29.168V28.4H222.217V29.168L218.665 30.848L210.649 50H209.641L202.729 34.352L195.625 50H194.617Z" fill="#787878"/>
<path d="M203.5 30C204.769 24.9554 206.946 21.4247 209.736 18.1946C216.065 10.8682 226.73 8.76079 235.974 11.6396V11.6396C245.983 14.757 256.878 11.3625 263.345 3.11128L265 1" stroke="#787878"/>
<path d="M211 47L217.06 40.0427C223.098 33.1102 232.571 30.2452 241.439 32.6693V32.6693C250.138 35.0474 259.435 32.3379 265.495 25.6588L267 24" stroke="#787878"/>
</svg>
